<?xml version="1.0" standalone="no"?><!DOCTYPE svg PUBLIC "-//W3C//DTD SVG 1.1//EN" "http://www.w3.org/Graphics/SVG/1.1/DTD/svg11.dtd"><svg t="1741069781608" class="icon" viewBox="0 0 1024 1024" version="1.1" xmlns="http://www.w3.org/2000/svg" p-id="8378" width="16" height="16" xmlns:xlink="http://www.w3.org/1999/xlink"><path d="M512 912.695652c221.295304 0 400.695652-179.400348 400.695652-400.695652S733.295304 111.304348 512 111.304348 111.304348 290.704696 111.304348 512s179.400348 400.695652 400.695652 400.695652z" fill="#0B77E3" fill-opacity=".2" p-id="8379"></path><path d="M204.354783 598.505739c3.962435-4.741565 12.176696-8.592696 18.365217-8.592696h578.637913c6.188522 0 14.358261 3.784348 18.365217 8.592696L868.218435 656.695652h-712.347826l48.484174-58.189913z" fill="#0B77E3" p-id="8380"></path><path d="M204.354783 598.505739L155.870609 656.695652h712.347826l-48.495305-58.189913c-4.006957-4.808348-12.176696-8.592696-18.365217-8.592696H222.73113c-6.199652 0-14.413913 3.85113-18.365217 8.592696zM222.72 567.652174h578.637913c12.81113 0 27.236174 6.733913 35.472696 16.606609l48.484174 58.189913c12.087652 14.491826 1.78087 36.507826-17.096348 36.507826h-712.347826c-18.877217 0-29.184-22.016-17.107479-36.507826l48.495305-58.189913C195.450435 574.430609 209.93113 567.652174 222.73113 567.652174z" fill="#005CB9" p-id="8381"></path><path d="M328.45913 100.173913h367.159653a27.926261 27.926261 0 0 1 27.904 27.826087V690.086957a22.26087 22.26087 0 0 1-22.26087 22.260869h-378.434783a22.26087 22.26087 0 0 1-22.260869-22.260869V128c0-15.404522 12.421565-27.826087 27.904-27.826087z" fill="#005CB9" p-id="8382"></path><path d="M322.82713 128V690.086957h378.434783V128c0-2.982957-2.526609-5.565217-5.64313-5.565217H328.45913a5.531826 5.531826 0 0 0-5.64313 5.565217z" fill="#40A0FF" p-id="8383"></path><path d="M244.914087 178.086957c0-18.454261 14.981565-33.391304 33.402435-33.391305h467.444869a33.369043 33.369043 0 0 1 33.413566 33.391305v567.652173a22.26087 22.26087 0 0 1-22.26087 22.26087h-489.73913a22.26087 22.26087 0 0 1-22.26087-22.26087V178.086957z" fill="#005CB9" p-id="8384"></path><path d="M267.174957 178.086957v456.347826h489.73913V178.086957c0-6.188522-4.997565-11.130435-11.152696-11.130435H278.316522c-6.13287 0-11.141565 4.986435-11.141565 11.130435z" fill="#A6D2FF" p-id="8385"></path><path d="M222.653217 222.686609v578.626782A11.130435 11.130435 0 0 0 233.694609 812.521739h556.699826c6.032696 0 11.041391-5.008696 11.041391-11.208348V222.686609A11.130435 11.130435 0 0 0 790.394435 211.478261H233.694609c-6.032696 0-11.041391 5.008696-11.041392 11.208348z" fill="#FFFFFF" p-id="8386"></path><path d="M200.392348 222.686609A33.424696 33.424696 0 0 1 233.694609 189.217391h556.699826a33.391304 33.391304 0 0 1 33.302261 33.469218v578.626782A33.424696 33.424696 0 0 1 790.394435 834.782609H233.694609a33.391304 33.391304 0 0 1-33.302261-33.469218V222.686609z m22.260869 0v578.626782A11.130435 11.130435 0 0 0 233.694609 812.521739h556.699826c6.032696 0 11.041391-5.008696 11.041391-11.208348V222.686609A11.130435 11.130435 0 0 0 790.394435 211.478261H233.694609c-6.032696 0-11.041391 5.008696-11.041392 11.208348z" fill="#005CB9" p-id="8387"></path><path d="M411.870609 300.521739m11.130434 0l178.086957 0q11.130435 0 11.130435 11.130435l0 133.565217q0 11.130435-11.130435 11.130435l-178.086957 0q-11.130435 0-11.130434-11.130435l0-133.565217q0-11.130435 11.130434-11.130435Z" fill="#A6D2FF" p-id="8388"></path><path d="M289.391304 790.272v-11.152696A11.085913 11.085913 0 0 1 300.521739 768h356.185044c6.054957 0 11.130435 4.975304 11.130434 11.119304v11.152696a11.085913 11.085913 0 0 1-11.130434 11.119304H300.510609c-6.054957 0-11.119304-4.975304-11.119305-11.119304z m400.695653 0v-11.152696c0-6.188522 5.030957-11.119304 11.241739-11.119304h22.038261a11.119304 11.119304 0 0 1 11.241739 11.119304v11.152696c0 6.188522-5.030957 11.119304-11.241739 11.119304h-22.038261a11.119304 11.119304 0 0 1-11.241739-11.119304z m-356.173914-100.173913a11.119304 11.119304 0 0 1-11.241739 11.119304h-22.038261c-6.210783 0-11.241739-4.930783-11.241739-11.119304v-11.152696A11.119304 11.119304 0 0 1 300.633043 667.826087h22.038261c6.210783 0 11.241739 4.930783 11.241739 11.119304v11.152696z m-44.521739-133.565217v-11.152696c0-6.188522 5.030957-11.119304 11.230609-11.119304h422.756174c6.233043 0 11.241739 4.975304 11.241739 11.119304v11.152696c0 6.188522-5.030957 11.119304-11.241739 11.119304H300.621913c-6.233043 0-11.230609-4.975304-11.230609-11.119304z m66.782609 133.565217v-11.152696c0-6.188522 5.008696-11.119304 11.163826-11.119304h233.672348a11.074783 11.074783 0 0 1 11.163826 11.119304v11.152696a11.108174 11.108174 0 0 1-11.163826 11.119304H367.34887a11.074783 11.074783 0 0 1-11.163827-11.119304z m-66.782609-66.782609v-11.152695A11.097043 11.097043 0 0 1 300.521739 601.043478h244.869565a11.130435 11.130435 0 0 1 11.130435 11.119305v11.152695A11.097043 11.097043 0 0 1 545.391304 634.434783H300.521739a11.130435 11.130435 0 0 1-11.130435-11.119305z m0 233.739131v-11.152696c0-6.188522 4.975304-11.119304 11.108174-11.119304h300.566261c6.043826 0 11.108174 4.975304 11.108174 11.119304v11.152696a11.085913 11.085913 0 0 1-11.108174 11.119304H300.499478c-6.032696 0-11.108174-4.975304-11.108174-11.119304z m289.391305-233.739131v-11.152695A11.130435 11.130435 0 0 1 589.990957 601.043478h133.409391c6.199652 0 11.208348 4.975304 11.208348 11.119305v11.152695a11.130435 11.130435 0 0 1-11.197218 11.119305H589.990957A11.152696 11.152696 0 0 1 578.782609 623.315478zM478.608696 411.826087h66.782608c6.144 0 22.26087 4.986435 22.26087 11.130435v33.391304H456.347826v-33.391304c0-6.144 16.11687-11.130435 22.26087-11.130435z" fill="#40A0FF" p-id="8389"></path><path d="M478.608696 353.947826v26.713044c0 11.01913 21.103304 31.165217 33.391304 31.165217 12.377043 0 33.391304-20.101565 33.391304-31.165217v-26.713044c0-11.01913-21.092174-31.165217-33.391304-31.165217-12.377043 0-33.391304 20.101565-33.391304 31.165217z" fill="#FFFFFF" p-id="8390"></path><path d="M472.453565 400.996174A32.612174 32.612174 0 0 1 467.478261 384v-33.391304c0-21.526261 22.950957-38.956522 44.521739-38.956522 21.51513 0 44.521739 17.474783 44.521739 38.956522v33.391304c0 6.077217-1.825391 11.842783-4.941913 16.985043C573.339826 402.899478 589.913043 421.687652 589.913043 445.217391v11.130435h11.052522c6.199652 0 11.208348-4.975304 11.208348-11.119304V311.652174c0-6.144-5.008696-11.119304-11.208348-11.119304H423.034435c-6.199652 0-11.208348 4.975304-11.208348 11.119304v133.565217c0 6.144 5.019826 11.119304 11.208348 11.119305H434.086957v-11.130435c0-21.982609 16.873739-42.139826 38.366608-44.221218zM389.565217 311.641043C389.565217 293.164522 404.591304 278.26087 423.034435 278.26087h177.93113A33.424696 33.424696 0 0 1 634.434783 311.641043V445.217391a33.413565 33.413565 0 0 1-33.469218 33.380174H423.034435A33.424696 33.424696 0 0 1 389.565217 445.217391V311.652174zM456.347826 445.217391v11.130435h111.304348v-11.130435c0-11.008-11.408696-22.138435-22.26087-22.138434h-66.782608c-10.896696 0-22.26087 11.219478-22.26087 22.138434z m33.391304-94.608695v33.647304c0 9.193739 13.04487 16.562087 22.26087 16.562087 9.282783 0 22.26087-7.334957 22.26087-16.562087V350.608696c0-9.193739-13.033739-16.695652-22.26087-16.695653-9.282783 0-22.26087 7.479652-22.26087 16.695653z" fill="#005CB9" p-id="8391"></path><path d="M356.173913 601.043478v22.227479A66.771478 66.771478 0 0 0 423.034435 690.086957h177.93113A66.80487 66.80487 0 0 0 667.826087 623.270957V601.043478h133.565217v200.403479c0 6.121739-5.008696 11.074783-11.041391 11.074782H233.650087a11.097043 11.097043 0 0 1-11.041391-11.074782V601.043478h133.565217z" fill="#000000" opacity=".1" p-id="8392"></path><path d="M333.913043 667.826087v22.227478A66.738087 66.738087 0 0 0 400.695652 756.869565h222.608696c36.87513 0 66.782609-29.918609 66.782609-66.816V667.826087h178.086956v200.403478c0 6.121739-4.930783 11.074783-11.186087 11.074783h-689.975652C160.834783 879.304348 155.826087 874.295652 155.826087 868.229565V667.826087h178.086956z" fill="#40A0FF" p-id="8393"></path><path d="M333.913043 667.826087H155.826087v200.403478c0 6.054957 5.008696 11.074783 11.186087 11.074783h689.975652A11.074783 11.074783 0 0 0 868.173913 868.229565V667.826087H690.086957v22.227478A66.80487 66.80487 0 0 1 623.304348 756.869565H400.695652c-36.886261 0-66.782609-29.807304-66.782609-66.816V667.826087z m0-22.26087a22.26087 22.26087 0 0 1 22.26087 22.26087v22.227478A44.477217 44.477217 0 0 0 400.695652 734.608696h222.608696c24.576 0 44.521739-19.945739 44.521739-44.555131V667.826087a22.26087 22.26087 0 0 1 22.26087-22.26087h178.086956a22.26087 22.26087 0 0 1 22.26087 22.26087v200.403478A33.335652 33.335652 0 0 1 856.987826 901.565217h-689.975652A33.435826 33.435826 0 0 1 133.565217 868.229565V667.826087a22.26087 22.26087 0 0 1 22.26087-22.26087h178.086956z" fill="#005CB9" p-id="8394"></path></svg>